<svg width="162" height="49" viewBox="0 0 162 49" fill="none" xmlns="http://www.w3.org/2000/svg">
<g clip-path="url(#clip0_4690_21302)">
<path d="M156 0.226562H6.00034C2.68664 0.226562 0.000366211 2.91284 0.000366211 6.22653V42.2264C0.000366211 45.54 2.68664 48.2263 6.00034 48.2263H156C159.313 48.2263 162 45.54 162 42.2264V6.22653C162 2.91284 159.313 0.226562 156 0.226562Z" fill="black"/>
<path d="M156 1.18632C157.336 1.18786 158.617 1.71939 159.562 2.66429C160.507 3.60919 161.038 4.89029 161.039 6.22653V42.2264C161.038 43.5626 160.507 44.8437 159.562 45.7886C158.617 46.7335 157.336 47.265 156 47.2666H6.00034C4.66408 47.265 3.383 46.7335 2.43815 45.7886C1.4933 44.8437 0.961838 43.5626 0.960361 42.2264V6.22653C0.961816 4.89027 1.49327 3.60916 2.43813 2.66425C3.38298 1.71935 4.66408 1.18784 6.00034 1.18632H156ZM156 0.226562H6.00034C4.41048 0.231216 2.88706 0.864848 1.76286 1.98905C0.638652 3.11326 0.00501991 4.63667 0.000366211 6.22653L0.000366211 42.2264C0.00501991 43.8162 0.638652 45.3396 1.76286 46.4638C2.88706 47.588 4.41048 48.2217 6.00034 48.2263H156C157.589 48.2217 159.113 47.588 160.237 46.4638C161.361 45.3396 161.995 43.8162 162 42.2264V6.22653C161.995 4.63667 161.361 3.11326 160.237 1.98905C159.113 0.864848 157.589 0.231216 156 0.226562Z" fill="#A6A6A6"/>
<path d="M51 8.60742H55.1752L55.058 9.6157H52.2237V11.5685H54.8961V12.5134H52.2237V14.6772H55.2098L55.1066 15.6954H51V8.60742Z" fill="white"/>
<path d="M58.0536 12.0779L55.8506 8.60742H57.2412L58.7334 11.1577L60.3049 8.60742H61.6564L59.4729 12.0341L61.8369 15.6954H60.4283L58.7389 12.9053L57.0201 15.6954H55.6693L58.0536 12.0779Z" fill="white"/>
<path d="M62.7383 8.60742H64.6471C65.5446 8.60742 66.2314 8.79018 66.7073 9.15569C67.1832 9.52119 67.4215 10.0499 67.4221 10.7417C67.4321 11.1738 67.3213 11.6002 67.1021 11.9727C66.8887 12.3228 66.5782 12.6034 66.2084 12.7804C65.7971 12.9746 65.3463 13.0709 64.8915 13.0619C64.5792 13.0576 64.2679 13.0248 63.9616 12.9639V15.6954H62.7379L62.7383 8.60742ZM65.8077 11.7723C65.9416 11.6438 66.046 11.4878 66.1137 11.3149C66.1813 11.1421 66.2106 10.9566 66.1994 10.7714C66.1994 10.3341 66.0665 10.0192 65.8007 9.82646C65.5349 9.63376 65.144 9.53753 64.6279 9.53778H63.9625V12.0532C64.1953 12.095 64.4309 12.1196 64.6673 12.1269C65.1666 12.1269 65.5467 12.0087 65.8077 11.7723Z" fill="white"/>
<path d="M68.6313 8.60742H69.855V14.6479H72.7874L72.684 15.6954H68.631L68.6313 8.60742Z" fill="white"/>
<path d="M74.6473 15.3481C74.1354 15.0585 73.7214 14.6229 73.4582 14.097C73.1734 13.5149 73.0322 12.873 73.0465 12.225C73.031 11.5456 73.1817 10.8727 73.4853 10.2647C73.7666 9.71534 74.2067 9.26332 74.7482 8.96733C75.3467 8.6505 76.0167 8.49291 76.6937 8.5097C77.3369 8.49188 77.9734 8.64441 78.5387 8.95185C79.0474 9.23995 79.4581 9.67386 79.7178 10.1976C79.9989 10.7768 80.1382 11.4146 80.1242 12.0583C80.1412 12.7453 79.9894 13.426 79.682 14.0406C79.3994 14.589 78.9596 15.0407 78.419 15.3379C77.8267 15.6526 77.1635 15.8094 76.493 15.7934C75.8493 15.8101 75.2126 15.6565 74.6473 15.3481ZM77.8195 14.4791C78.1647 14.2463 78.4324 13.9157 78.5883 13.5296C78.7648 13.0903 78.8513 12.6201 78.8427 12.1467C78.8505 11.6832 78.7743 11.2221 78.6176 10.7858C78.4793 10.4034 78.2289 10.0715 77.8991 9.83357C77.5229 9.58363 77.0772 9.45946 76.626 9.47893C76.178 9.4651 75.7367 9.59076 75.3632 9.83854C75.017 10.079 74.747 10.4136 74.5852 10.8028C74.408 11.2249 74.3195 11.6789 74.3252 12.1366C74.3175 12.6067 74.4008 13.0738 74.5704 13.5122C74.7194 13.8992 74.98 14.2332 75.3191 14.4719C75.6885 14.7163 76.1248 14.8395 76.5675 14.8241C77.0101 14.8381 77.4465 14.7178 77.8195 14.4791Z" fill="white"/>
<path d="M81.491 8.60742H83.7085C84.5173 8.60742 85.13 8.76899 85.5468 9.09213C85.754 9.25623 85.9188 9.4677 86.0274 9.70874C86.1359 9.94979 86.185 10.2134 86.1706 10.4773C86.1779 10.8212 86.1006 11.1616 85.9454 11.4685C85.8091 11.7368 85.6191 11.9741 85.387 12.1658C85.1818 12.3358 84.9503 12.4715 84.7017 12.5676L86.8806 15.6954H85.4604L83.6153 12.8856H82.7146V15.6954H81.491V8.60742ZM83.4093 11.9604C83.6824 11.9659 83.9528 11.9063 84.1982 11.7865C84.4192 11.6776 84.6046 11.5079 84.7325 11.2973C84.8626 11.0758 84.9285 10.8224 84.923 10.5656C84.9352 10.4177 84.9108 10.269 84.8519 10.1327C84.793 9.99648 84.7014 9.87686 84.5853 9.78446C84.2913 9.60103 83.9471 9.51462 83.6013 9.53741H82.7153V11.9604H83.4093Z" fill="white"/>
<path d="M87.8497 8.60742H92.0249L91.9077 9.6157H89.0734V11.5685H91.7458V12.5134H89.0734V14.6772H92.0603L91.9569 15.6954H87.8497V8.60742Z" fill="white"/>
<path d="M96.5673 8.60742H97.7909V15.6954H96.5673V8.60742Z" fill="white"/>
<path d="M101.027 9.63026H98.8286L98.9366 8.60742H104.453L104.34 9.63026H102.25V15.6954H101.027V9.63026Z" fill="white"/>
<path d="M109.764 15.3481C109.252 15.0585 108.838 14.6229 108.575 14.097C108.29 13.5149 108.149 12.873 108.163 12.225C108.147 11.5456 108.298 10.8727 108.602 10.2647C108.883 9.71534 109.323 9.26332 109.865 8.96733C110.463 8.65058 111.133 8.493 111.81 8.5097C112.453 8.49186 113.089 8.6444 113.655 8.95185C114.163 9.23995 114.574 9.67386 114.834 10.1976C115.115 10.7768 115.254 11.4146 115.24 12.0583C115.257 12.7453 115.105 13.426 114.798 14.0406C114.515 14.589 114.076 15.0407 113.535 15.3379C112.943 15.6525 112.279 15.8093 111.609 15.7932C110.965 15.8099 110.329 15.6563 109.764 15.3481ZM112.936 14.4791C113.281 14.2463 113.549 13.9156 113.705 13.5296C113.881 13.0903 113.967 12.6201 113.959 12.1467C113.967 11.6832 113.891 11.2221 113.734 10.7858C113.595 10.4033 113.345 10.0714 113.014 9.83357C112.638 9.58363 112.193 9.45946 111.741 9.47893C111.293 9.46513 110.852 9.59078 110.478 9.83854C110.132 10.079 109.862 10.4136 109.701 10.8028C109.523 11.2249 109.435 11.6789 109.441 12.1366C109.433 12.6067 109.516 13.0738 109.686 13.5122C109.835 13.8992 110.095 14.2332 110.434 14.4719C110.804 14.7163 111.24 14.8395 111.683 14.8241C112.126 14.8383 112.563 14.718 112.936 14.4791Z" fill="white"/>
<path d="M116.607 8.60742H118.012L121.517 14.0996C121.488 13.5777 121.473 13.0963 121.473 12.6555V8.60742H122.608V15.6954H121.248L117.689 10.1142C117.725 10.7476 117.743 11.3089 117.743 11.7981V15.6954H116.607V8.60742Z" fill="white"/>
<path d="M60.1576 32.7661H54.721L53.3902 36.4031H51L56.3242 22.8203H58.5834L64.0292 36.4031H61.5171L60.1576 32.7661ZM55.4056 30.9194H59.4646L58.011 27.029C57.8113 26.4916 57.6144 25.898 57.4204 25.2484C57.2453 25.8232 57.055 26.4106 56.8493 27.0106L55.4056 30.9194Z" fill="white"/>
<path d="M65.1079 28.7635C65.1079 28.0133 65.0829 27.1883 65.0331 26.2884H67.207C67.2886 26.7129 67.345 27.1419 67.3759 27.573C68.2757 26.5918 69.3068 26.1012 70.4693 26.101C71.1632 26.0899 71.8448 26.2859 72.4267 26.664C73.0087 27.0422 73.4647 27.5853 73.7364 28.2239C74.0895 28.9582 74.2661 29.8909 74.2661 31.022C74.2947 32.0639 74.0878 33.0989 73.6609 34.0498C73.3006 34.8395 72.7112 35.5026 71.9691 35.9528C71.2066 36.3939 70.3378 36.6176 69.4571 36.5997C68.7645 36.5986 68.0769 36.4814 67.4231 36.2528V40.4333L65.1077 40.6304L65.1079 28.7635ZM71.1959 33.933C71.6679 33.2988 71.9038 32.3725 71.9037 31.1539C71.9037 30.0227 71.7084 29.2024 71.3178 28.6929C71.139 28.4488 70.9036 28.2517 70.6317 28.1187C70.3599 27.9857 70.0598 27.9207 69.7573 27.9293C69.3211 27.9256 68.8914 28.0353 68.5104 28.2477C68.1079 28.4768 67.7416 28.7643 67.4234 29.1008V34.519C67.6802 34.6403 67.9507 34.73 68.2291 34.7861C68.5281 34.8509 68.8331 34.8839 69.139 34.8845C70.0386 34.8843 70.7243 34.5669 71.1959 33.9326V33.933Z" fill="white"/>
<path d="M75.7481 28.7635C75.7481 28.0133 75.7232 27.1883 75.6733 26.2884H77.8472C77.9289 26.7129 77.9852 27.1418 78.016 27.573C78.9158 26.5918 79.9469 26.1012 81.1096 26.101C81.8035 26.0899 82.485 26.286 83.0669 26.6642C83.6489 27.0424 84.1048 27.5856 84.3765 28.2243C84.7295 28.9586 84.906 29.8913 84.9061 31.0223C84.9347 32.0643 84.7278 33.0993 84.3008 34.0501C83.9407 34.8399 83.3512 35.503 82.6092 35.9532C81.8466 36.3943 80.9778 36.618 80.097 36.6C79.4044 36.599 78.7169 36.4817 78.0631 36.2531V40.4336L75.7476 40.6308L75.7481 28.7635ZM81.8363 33.933C82.3082 33.2988 82.5441 32.3725 82.5441 31.1539C82.5441 30.0227 82.3488 29.2024 81.9581 28.6929C81.7793 28.4488 81.5438 28.2517 81.272 28.1187C81.0001 27.9857 80.7 27.9207 80.3975 27.9293C79.9614 27.9256 79.5318 28.0353 79.1508 28.2477C78.7483 28.4768 78.382 28.7643 78.0639 29.1008V34.519C78.3206 34.6403 78.5912 34.73 78.8695 34.7861C79.1685 34.8509 79.4735 34.8839 79.7794 34.8845C80.6791 34.8842 81.3647 34.5669 81.8363 33.9326V33.933Z" fill="white"/>
<path d="M89.2745 35.7606C88.2846 35.218 87.481 34.3898 86.9684 33.384C86.4309 32.3523 86.1624 31.1337 86.1627 29.728C86.1627 28.2033 86.4719 26.9081 87.0903 25.8423C87.6755 24.8095 88.5551 23.9744 89.6168 23.4436C90.7321 22.8978 91.9605 22.6231 93.2021 22.642C93.9548 22.6388 94.7052 22.7254 95.4373 22.8999C96.1221 23.0631 96.7871 23.3003 97.4206 23.6074L96.8299 25.3885C95.7358 24.8349 94.5314 24.5339 93.3054 24.5077C92.4401 24.4881 91.5849 24.6966 90.8257 25.1122C90.1078 25.5241 89.5311 26.1434 89.1712 26.8887C88.7552 27.773 88.5529 28.7427 88.5805 29.7195C88.5647 30.6 88.7191 31.4752 89.0354 32.2971C89.3196 33.0237 89.8203 33.6455 90.4696 34.0782C91.1225 34.5158 91.9454 34.7345 92.9383 34.7344C93.3906 34.7343 93.8422 34.6967 94.2883 34.6219C94.7194 34.5521 95.1429 34.4422 95.5536 34.2937V31.5473H92.4151V29.7477H97.8047V35.4658C97.0229 35.8304 96.2042 36.11 95.3627 36.3C94.5279 36.4916 93.6742 36.589 92.8176 36.5903C91.4551 36.5903 90.274 36.3137 89.2745 35.7606Z" fill="white"/>
<path d="M106.147 36.4031C106.06 35.961 106.007 35.5129 105.989 35.0627C105.601 35.5125 105.128 35.8805 104.596 36.1452C103.997 36.4484 103.333 36.6012 102.662 36.5905C102.113 36.5975 101.57 36.4806 101.073 36.2485C100.599 36.0246 100.203 35.6657 99.9336 35.2169C99.6391 34.7063 99.493 34.1236 99.5119 33.5345C99.4951 33.0878 99.582 32.6433 99.7658 32.2358C99.9496 31.8284 100.225 31.4691 100.571 31.1861C101.278 30.6018 102.456 30.3096 104.105 30.3096C104.72 30.3093 105.334 30.3532 105.942 30.4409V30.244C105.942 29.3503 105.752 28.7208 105.371 28.3553C104.991 27.9898 104.444 27.8069 103.732 27.8066C103.197 27.8123 102.664 27.8849 102.147 28.0226C101.639 28.1476 101.143 28.3203 100.666 28.5384L100.301 26.851C100.827 26.6269 101.373 26.4542 101.932 26.3352C102.633 26.176 103.35 26.0973 104.069 26.1007C104.832 26.08 105.591 26.2157 106.3 26.4994C106.922 26.7748 107.43 27.2586 107.734 27.8676C108.078 28.5145 108.25 29.3847 108.25 30.4783V34.4998C108.25 34.9184 108.275 35.5527 108.325 36.4027L106.147 36.4031ZM104.76 34.5282C105.208 34.3224 105.609 34.0292 105.942 33.6658V31.7911C105.428 31.7299 104.911 31.6955 104.394 31.6881C103.438 31.6881 102.777 31.8427 102.412 32.1518C102.231 32.305 102.088 32.4973 101.993 32.7142C101.898 32.931 101.854 33.1667 101.863 33.4033C101.863 33.9033 101.996 34.2737 102.261 34.5144C102.563 34.7677 102.95 34.8967 103.344 34.8753C103.836 34.8684 104.321 34.7497 104.76 34.5282H104.76Z" fill="white"/>
<path d="M110.273 33.9748V22.0233L112.579 21.8359V33.5626C112.579 33.9937 112.652 34.2983 112.8 34.4764C112.888 34.5711 112.997 34.6443 113.118 34.6906C113.239 34.7369 113.369 34.755 113.498 34.7435C113.705 34.7336 113.909 34.699 114.107 34.6406L114.38 36.2999C114.121 36.3981 113.852 36.4688 113.578 36.5108C113.282 36.5619 112.983 36.5885 112.683 36.5902C111.076 36.5902 110.273 35.7184 110.273 33.9748Z" fill="white"/>
<path d="M116.038 33.9748V22.0233L118.344 21.8359V33.5626C118.344 33.9937 118.417 34.2983 118.565 34.4764C118.653 34.5711 118.762 34.6443 118.883 34.6906C119.004 34.7369 119.134 34.755 119.263 34.7435C119.47 34.7336 119.674 34.699 119.872 34.6406L120.143 36.2999C119.884 36.3981 119.616 36.4688 119.342 36.5108C119.046 36.5619 118.746 36.5885 118.446 36.5902C116.841 36.5902 116.038 35.7184 116.038 33.9748Z" fill="white"/>
<path d="M129.743 31.6411H123.125C123.232 33.7596 124.241 34.8189 126.153 34.8189C126.644 34.817 127.133 34.7587 127.611 34.6453C128.1 34.5323 128.578 34.3771 129.04 34.1813L129.546 35.7656C128.354 36.3288 127.049 36.6109 125.731 36.5902C124.656 36.5902 123.75 36.3872 123.013 35.981C122.287 35.5868 121.704 34.9732 121.349 34.2281C120.955 33.3638 120.765 32.4211 120.791 31.472C120.765 30.4772 120.967 29.4897 121.382 28.5851C121.737 27.8217 122.31 27.1796 123.027 26.7386C123.763 26.3045 124.605 26.0836 125.459 26.1008C126.307 26.0701 127.145 26.3045 127.854 26.7714C128.492 27.2158 128.987 27.8363 129.279 28.5571C129.595 29.3399 129.753 30.1778 129.742 31.0221L129.743 31.6411ZM127.484 30.1695C127.441 29.3633 127.238 28.7587 126.875 28.3556C126.692 28.1546 126.467 27.9963 126.216 27.8919C125.965 27.7874 125.694 27.7394 125.422 27.7511C125.148 27.7441 124.876 27.7947 124.624 27.8996C124.371 28.0045 124.143 28.1615 123.955 28.3602C123.565 28.7666 123.31 29.3697 123.191 30.1695H127.484Z" fill="white"/>
<path d="M131.609 28.8288C131.609 28.2724 131.584 27.4255 131.534 26.2881H133.699C133.737 26.5696 133.773 26.9055 133.807 27.296C133.841 27.6864 133.865 28.0035 133.877 28.2473C134.111 27.8533 134.376 27.4787 134.67 27.1274C134.925 26.8272 135.234 26.5763 135.579 26.3868C135.943 26.1917 136.351 26.0932 136.764 26.1007C137.075 26.0948 137.384 26.1327 137.684 26.2133L137.393 28.2191C137.149 28.148 136.896 28.1134 136.643 28.1163C136.136 28.1054 135.639 28.2511 135.218 28.5334C134.711 28.9158 134.27 29.3799 133.916 29.9067V36.4028H131.609V28.8288Z" fill="white"/>
<path d="M139.072 40.5415C138.789 40.4956 138.51 40.4282 138.238 40.3399L138.659 38.6528C138.815 38.6964 139.012 38.7384 139.25 38.7793C139.473 38.8185 139.699 38.8389 139.925 38.8401C140.949 38.8401 141.718 38.1808 142.231 36.8621L142.38 36.4873L138.65 26.2883H141.134L143.009 31.9877C143.252 32.7214 143.45 33.4696 143.6 34.228C143.775 33.4968 143.981 32.7656 144.218 32.0344L146.121 26.2881H148.455L144.733 36.5338C144.454 37.3591 144.073 38.1465 143.6 38.8779C143.237 39.4314 142.743 39.8857 142.161 40.1995C141.538 40.5027 140.851 40.6507 140.159 40.631C139.795 40.6328 139.431 40.6028 139.072 40.5415Z" fill="white"/>
<path d="M18.8611 9.55078C13.2992 9.55078 11.2648 11.5851 11.2648 17.1471V28.9543C11.2648 34.5163 13.2992 36.5506 18.8611 36.5506H30.6646C36.2266 36.5506 38.2648 34.5163 38.2648 28.9543V17.1471C38.2648 11.5851 36.2303 9.55078 30.6684 9.55078H18.8611Z" fill="#C8102E"/>
<path d="M16.6115 23.0534H17.3269V26.5835H16.6115V25.1499H14.9943V26.5835H14.278V23.0534H14.9943V24.4775H16.6115V23.0534ZM20.6462 25.074C20.6462 25.6478 20.3612 25.9544 19.8437 25.9544C19.3234 25.9544 19.0368 25.6383 19.0368 25.0494V23.0554H18.3206V25.074C18.3206 26.0669 18.8723 26.6362 19.8345 26.6362C20.8056 26.6362 21.3626 26.0561 21.3626 25.0446V23.0532H20.6472L20.6462 25.074ZM28.9236 25.4808L28.1222 23.0532H27.5376L26.7363 25.4808L25.9564 23.0549H25.1941L26.4252 26.5833H27.0168L27.8195 24.2657L28.6218 26.5833H29.2207L30.448 23.0549H29.7055L28.9236 25.4808ZM31.7318 25.0649H33.0345V24.4221H31.7318V23.6995H33.6229V23.0561H31.0253V26.5816H33.6911V25.9386H31.7318V25.0649ZM34.5449 26.5788H35.2518V23.0534H34.545L34.5449 26.5788ZM22.7776 25.8468L22.4564 26.5818H21.7252L23.2802 23.0537H23.9124L25.4613 26.5818H24.7103L24.3942 25.8468H22.7776ZM23.0438 25.2103H24.1267L23.5835 23.9471L23.0438 25.2103Z" fill="white"/>
<path d="M24.7647 18.5583C23.5731 18.5569 22.4308 18.083 21.5883 17.2404C20.7457 16.3979 20.2718 15.2555 20.2705 14.064H20.9054C20.9054 15.0876 21.312 16.0693 22.0358 16.7931C22.7596 17.517 23.7414 17.9236 24.765 17.9236C25.7886 17.9236 26.7703 17.517 27.4942 16.7931C28.218 16.0693 28.6246 15.0876 28.6246 14.064H29.2595C29.2582 15.2556 28.7842 16.3981 27.9415 17.2406C27.0988 18.0832 25.9563 18.5571 24.7647 18.5583Z" fill="white"/>
</g>
<defs>
<clipPath id="clip0_4690_21302">
<rect width="161.999" height="48" fill="white" transform="translate(0.000366211 0.226562)"/>
</clipPath>
</defs>
</svg>
