<svg width="162" height="49" viewBox="0 0 162 49" fill="none" xmlns="http://www.w3.org/2000/svg">
<path d="M149.099 0.226719H12.908C12.4115 0.226719 11.921 0.226719 11.4259 0.229119C11.0115 0.231519 10.6003 0.238491 10.1819 0.244359C9.2728 0.253841 8.36589 0.32473 7.46899 0.456411C6.57336 0.590958 5.70578 0.844617 4.8956 1.20881C4.08641 1.57608 3.34704 2.05332 2.70429 2.6232C2.05817 3.19148 1.51958 3.84834 1.10923 4.56851C0.697744 5.28725 0.412419 6.05745 0.263109 6.8525C0.112379 7.64654 0.0312704 8.44974 0.0205099 9.2549C0.00794675 9.62282 0.00662003 9.99196 0 10.3599V38.097C0.00662003 38.4696 0.00794675 38.8306 0.0205099 39.2033C0.0312737 40.0084 0.112383 40.8116 0.263109 41.6056C0.412007 42.4011 0.697348 43.1718 1.10923 43.8908C1.51939 44.6086 2.05806 45.2628 2.70429 45.8279C3.3446 46.4003 4.08445 46.8779 4.8956 47.2424C5.70577 47.6075 6.57326 47.8627 7.46899 47.9993C8.36604 48.1299 9.27286 48.2009 10.1819 48.2115C10.6003 48.2196 11.0115 48.2243 11.4259 48.2243C11.921 48.2267 12.4115 48.2267 12.908 48.2267H149.099C149.586 48.2267 150.08 48.2267 150.567 48.2243C150.979 48.2243 151.402 48.2196 151.815 48.2115C152.722 48.2014 153.627 48.1305 154.522 47.9993C155.421 47.8617 156.292 47.6066 157.106 47.2424C157.916 46.8777 158.655 46.4001 159.295 45.8279C159.94 45.2606 160.48 44.6069 160.895 43.8908C161.304 43.1712 161.586 42.4007 161.733 41.6056C161.884 40.8115 161.968 40.0085 161.984 39.2033C161.989 38.8306 161.989 38.4696 161.989 38.097C162 37.6611 162 37.2275 162 36.7845V11.6701C162 11.2306 162 10.7947 161.989 10.3599C161.989 9.99196 161.989 9.62282 161.984 9.25485C161.968 8.44963 161.884 7.6466 161.733 6.85245C161.586 6.05786 161.303 5.28772 160.895 4.56846C160.059 3.12495 158.734 1.94995 157.106 1.2087C156.292 0.845399 155.421 0.591807 154.522 0.456303C153.627 0.324042 152.722 0.253128 151.815 0.244191C151.402 0.238335 150.979 0.231303 150.567 0.228963C150.08 0.226562 149.586 0.226562 149.099 0.226562V0.226719Z" fill="#A6A6A6"/>
<path d="M11.316 47.1801C10.9028 47.1801 10.4996 47.1754 10.0896 47.1673C9.2404 47.1575 8.39315 47.092 7.55484 46.9715C6.77315 46.8523 6.01591 46.6307 5.30809 46.3139C4.60675 45.9997 3.96708 45.5877 3.41358 45.0937C2.85206 44.6055 2.38457 44.0393 2.02963 43.4176C1.67079 42.7917 1.42245 42.1209 1.29326 41.4285C1.15374 40.6845 1.07826 39.9322 1.06746 39.178C1.05886 38.9249 1.04761 38.0821 1.04761 38.0821V10.3556C1.04761 10.3556 1.0596 9.52575 1.06753 9.28194C1.07787 8.529 1.15291 7.77785 1.29201 7.03499C1.42144 6.34067 1.66997 5.66792 2.02901 5.04005C2.38264 4.4187 2.84753 3.85208 3.40567 3.36216C3.96318 2.86759 4.6049 2.45348 5.30742 2.13494C6.01362 1.81913 6.76943 1.59906 7.54954 1.48208C8.3906 1.36033 9.24079 1.29451 10.093 1.28516L11.3166 1.27051H150.684L151.922 1.28575C152.767 1.29463 153.609 1.35987 154.442 1.4809C155.23 1.59935 155.994 1.82096 156.708 2.13846C158.116 2.78041 159.261 3.79603 159.983 5.04298C160.337 5.66652 160.581 6.33377 160.709 7.0221C160.85 7.77106 160.929 8.52811 160.945 9.28722C160.949 9.62713 160.949 9.99225 160.949 10.3556C160.96 10.8057 160.96 11.2341 160.96 11.666V36.7857C160.96 37.2217 160.96 37.6472 160.949 38.0762C160.949 38.4665 160.949 38.8241 160.944 39.1921C160.928 39.9376 160.85 40.6812 160.712 41.4167C160.585 42.1142 160.338 42.7902 159.98 43.4212C159.622 44.0362 159.157 44.5975 158.602 45.0843C158.048 45.581 157.407 45.9954 156.704 46.3116C155.992 46.6309 155.23 46.8533 154.442 46.9715C153.604 47.0927 152.757 47.1581 151.908 47.1673C151.51 47.1754 151.094 47.1801 150.691 47.1801L149.221 47.1825L11.316 47.1801Z" fill="black"/>
<path d="M39.3568 24.5873C39.3697 23.5858 39.6357 22.6037 40.1301 21.7326C40.6246 20.8614 41.3313 20.1295 42.1846 19.6049C41.6425 18.8307 40.9274 18.1936 40.096 17.7441C39.2646 17.2946 38.3399 17.0452 37.3952 17.0157C35.3801 16.8041 33.4266 18.2215 32.3998 18.2215C31.353 18.2215 29.772 17.0367 28.0695 17.0717C26.9683 17.1073 25.8951 17.4275 24.9545 18.0012C24.0138 18.5748 23.2378 19.3824 22.702 20.3451C20.3812 24.3632 22.1124 30.2685 24.3355 33.5164C25.4478 35.1068 26.7477 36.8834 28.4486 36.8204C30.1131 36.7514 30.7348 35.759 32.7439 35.759C34.7344 35.759 35.3177 36.8204 37.0531 36.7803C38.8392 36.7513 39.9645 35.1828 41.0377 33.5774C41.8369 32.4441 42.4519 31.1917 42.8598 29.8664C41.8222 29.4275 40.9367 28.6929 40.3137 27.7541C39.6908 26.8154 39.358 25.714 39.3568 24.5873Z" fill="white"/>
<path d="M36.0789 14.8797C37.0527 13.7106 37.5325 12.208 37.4163 10.6909C35.9285 10.8472 34.5542 11.5583 33.5672 12.6824C33.0846 13.2316 32.715 13.8706 32.4795 14.5627C32.244 15.2548 32.1473 15.9866 32.1947 16.7161C32.9389 16.7238 33.6751 16.5625 34.3479 16.2444C35.0207 15.9263 35.6125 15.4597 36.0789 14.8797Z" fill="white"/>
<path d="M60.3968 32.7943H54.7167L53.3526 36.822H50.9468L56.3269 21.9204H58.8265L64.2065 36.822H61.7597L60.3968 32.7943ZM55.305 30.9357H59.8074L57.5878 24.399H57.5257L55.305 30.9357Z" fill="white"/>
<path d="M75.8257 31.3903C75.8257 34.7665 74.0187 36.9356 71.2917 36.9356C70.6009 36.9717 69.9139 36.8126 69.3094 36.4764C68.7048 36.1403 68.2072 35.6407 67.8734 35.0348H67.8218V40.4161H65.5917V25.9575H67.7503V27.7645H67.7913C68.1405 27.1615 68.6465 26.6645 69.2557 26.3263C69.8649 25.9881 70.5543 25.8213 71.2507 25.8438C74.0081 25.8438 75.8257 28.0235 75.8257 31.3903ZM73.5335 31.3903C73.5335 29.1907 72.3968 27.7446 70.6624 27.7446C68.9585 27.7446 67.8124 29.2212 67.8124 31.3903C67.8124 33.5794 68.9585 35.0454 70.6624 35.0454C72.3968 35.0454 73.5335 33.6098 73.5335 31.3903Z" fill="white"/>
<path d="M87.7835 31.3903C87.7835 34.7665 85.9764 36.9356 83.2495 36.9356C82.5587 36.9717 81.8717 36.8126 81.2671 36.4764C80.6626 36.1403 80.1649 35.6407 79.8311 35.0348H79.7795V40.416H77.5494V25.9575H79.708V27.7645H79.749C80.0982 27.1615 80.6043 26.6645 81.2134 26.3263C81.8226 25.9881 82.512 25.8213 83.2084 25.8438C85.9659 25.8438 87.7835 28.0235 87.7835 31.3903ZM85.4913 31.3903C85.4913 29.1907 84.3545 27.7446 82.6202 27.7446C80.9163 27.7446 79.7702 29.2211 79.7702 31.3903C79.7702 33.5793 80.9163 35.0454 82.6202 35.0454C84.3546 35.0454 85.4913 33.6098 85.4913 31.3903H85.4913Z" fill="white"/>
<path d="M95.6867 32.67C95.8519 34.1477 97.2875 35.118 99.2492 35.118C101.129 35.118 102.481 34.1477 102.481 32.8152C102.481 31.6586 101.666 30.966 99.7343 30.4914L97.8031 30.0262C95.0667 29.3652 93.7964 28.0856 93.7964 26.009C93.7964 23.4379 96.0371 21.6719 99.2187 21.6719C102.367 21.6719 104.526 23.4379 104.599 26.009H102.348C102.213 24.5219 100.984 23.6242 99.187 23.6242C97.3905 23.6242 96.1612 24.5324 96.1612 25.8543C96.1612 26.9078 96.9464 27.5277 98.8671 28.0023L100.509 28.4054C103.566 29.1285 104.837 30.3566 104.837 32.5363C104.837 35.3242 102.616 37.0703 99.0839 37.0703C95.7792 37.0703 93.548 35.3652 93.4038 32.6699L95.6867 32.67Z" fill="white"/>
<path d="M109.65 23.3862V25.9573H111.716V27.7233H109.65V33.7128C109.65 34.6433 110.063 35.0769 110.971 35.0769C111.217 35.0726 111.462 35.0554 111.705 35.0253V36.7807C111.297 36.857 110.882 36.8916 110.466 36.8839C108.267 36.8839 107.409 36.0577 107.409 33.9506V27.7233H105.829V25.9573H107.409V23.3862H109.65Z" fill="white"/>
<path d="M112.912 31.3901C112.912 27.9718 114.925 25.8237 118.065 25.8237C121.215 25.8237 123.219 27.9717 123.219 31.3901C123.219 34.8179 121.225 36.9565 118.065 36.9565C114.905 36.9565 112.912 34.8179 112.912 31.3901ZM120.946 31.3901C120.946 29.0452 119.872 27.6612 118.065 27.6612C116.258 27.6612 115.184 29.0558 115.184 31.3901C115.184 33.7444 116.258 35.1179 118.065 35.1179C119.872 35.1179 120.946 33.7444 120.946 31.3901H120.946Z" fill="white"/>
<path d="M125.057 25.9574H127.184V27.8066H127.236C127.38 27.229 127.718 26.7186 128.194 26.3612C128.67 26.0037 129.254 25.821 129.849 25.8437C130.106 25.8428 130.362 25.8707 130.613 25.9269V28.0128C130.289 27.9137 129.95 27.8682 129.611 27.8781C129.287 27.8649 128.964 27.922 128.665 28.0455C128.365 28.169 128.095 28.3559 127.874 28.5933C127.654 28.8308 127.487 29.1132 127.386 29.4212C127.284 29.7292 127.251 30.0555 127.287 30.3777V36.8218H125.057L125.057 25.9574Z" fill="white"/>
<path d="M140.895 33.6308C140.595 35.603 138.675 36.9565 136.217 36.9565C133.057 36.9565 131.095 34.839 131.095 31.4417C131.095 28.0339 133.067 25.8237 136.123 25.8237C139.129 25.8237 141.019 27.8886 141.019 31.1827V31.9468H133.346V32.0815C133.311 32.4814 133.361 32.8842 133.493 33.2632C133.625 33.6422 133.836 33.9887 134.113 34.2798C134.389 34.5709 134.724 34.7998 135.096 34.9513C135.468 35.1029 135.868 35.1736 136.269 35.1589C136.796 35.2083 137.325 35.0862 137.777 34.8109C138.229 34.5355 138.58 34.1217 138.778 33.6308L140.895 33.6308ZM133.357 30.3882H138.788C138.808 30.0287 138.754 29.6689 138.628 29.3314C138.502 28.994 138.308 28.6861 138.058 28.4272C137.808 28.1683 137.507 27.9639 137.174 27.8268C136.841 27.6898 136.483 27.623 136.123 27.6308C135.76 27.6286 135.4 27.6984 135.064 27.8361C134.728 27.9738 134.423 28.1766 134.165 28.433C133.908 28.6894 133.704 28.9941 133.565 29.3297C133.427 29.6653 133.356 30.025 133.357 30.3882V30.3882Z" fill="white"/>
<path d="M55.0255 10.7039C55.4931 10.6704 55.9622 10.741 56.3992 10.9107C56.8361 11.0804 57.2299 11.345 57.5522 11.6854C57.8745 12.0257 58.1173 12.4334 58.263 12.8789C58.4086 13.3244 58.4536 13.7967 58.3947 14.2617C58.3947 16.5492 57.1584 17.8641 55.0255 17.8641H52.4392V10.7039H55.0255ZM53.5513 16.8515H54.9013C55.2354 16.8715 55.5697 16.8167 55.88 16.6912C56.1902 16.5656 56.4686 16.3725 56.6948 16.1258C56.921 15.8791 57.0893 15.5851 57.1875 15.2652C57.2858 14.9453 57.3114 14.6074 57.2626 14.2763C57.3079 13.9465 57.2796 13.6108 57.1799 13.2932C57.0801 12.9756 56.9114 12.684 56.6857 12.4393C56.46 12.1946 56.183 12.0028 55.8745 11.8777C55.566 11.7526 55.2337 11.6973 54.9013 11.7158H53.5513V16.8515Z" fill="white"/>
<path d="M59.651 15.1601C59.617 14.805 59.6576 14.4467 59.7702 14.1082C59.8828 13.7697 60.0649 13.4585 60.3049 13.1946C60.5448 12.9306 60.8373 12.7197 61.1635 12.5753C61.4897 12.431 61.8425 12.3564 62.1992 12.3564C62.5559 12.3564 62.9087 12.431 63.2349 12.5753C63.5612 12.7197 63.8536 12.9306 64.0935 13.1946C64.3335 13.4585 64.5156 13.7697 64.6282 14.1082C64.7408 14.4467 64.7814 14.805 64.7475 15.1601C64.7821 15.5156 64.7419 15.8743 64.6296 16.2134C64.5173 16.5524 64.3353 16.8642 64.0953 17.1287C63.8553 17.3932 63.5627 17.6045 63.2361 17.7492C62.9096 17.8938 62.5564 17.9685 62.1992 17.9685C61.8421 17.9685 61.4889 17.8938 61.1623 17.7492C60.8358 17.6045 60.5431 17.3932 60.3031 17.1287C60.0631 16.8642 59.8811 16.5524 59.7688 16.2134C59.6565 15.8743 59.6164 15.5156 59.651 15.1601ZM63.6506 15.1601C63.6506 13.9888 63.1244 13.3039 62.201 13.3039C61.274 13.3039 60.7526 13.9888 60.7526 15.1601C60.7526 16.3408 61.2741 17.0205 62.201 17.0205C63.1244 17.0204 63.6506 16.3361 63.6506 15.1601H63.6506Z" fill="white"/>
<path d="M71.522 17.864H70.4158L69.299 13.8843H69.2146L68.1025 17.864H67.0068L65.5173 12.4604H66.599L67.5669 16.5836H67.6466L68.7576 12.4604H69.7806L70.8916 16.5836H70.9759L71.9392 12.4604H73.0056L71.522 17.864Z" fill="white"/>
<path d="M74.2583 12.4607H75.2849V13.3191H75.3646C75.4997 13.0108 75.7277 12.7523 76.0168 12.5798C76.3058 12.4072 76.6415 12.3291 76.9771 12.3564C77.24 12.3366 77.504 12.3763 77.7495 12.4724C77.995 12.5685 78.2158 12.7186 78.3954 12.9116C78.575 13.1046 78.7089 13.3356 78.7871 13.5874C78.8654 13.8392 78.886 14.1053 78.8474 14.3662V17.8642H77.781V14.6339C77.781 13.7656 77.4036 13.3337 76.6149 13.3337C76.4364 13.3254 76.2582 13.3558 76.0926 13.4228C75.9269 13.4898 75.7777 13.5918 75.6551 13.7219C75.5326 13.852 75.4396 14.007 75.3826 14.1763C75.3255 14.3457 75.3058 14.5254 75.3247 14.7031V17.8642H74.2583L74.2583 12.4607Z" fill="white"/>
<path d="M80.5466 10.3511H81.613V17.864H80.5466V10.3511Z" fill="white"/>
<path d="M83.0954 15.1597C83.0615 14.8046 83.1021 14.4463 83.2147 14.1078C83.3274 13.7693 83.5095 13.4581 83.7495 13.1941C83.9894 12.9301 84.2819 12.7192 84.6081 12.5748C84.9344 12.4305 85.2872 12.356 85.6439 12.356C86.0007 12.356 86.3535 12.4305 86.6797 12.5748C87.006 12.7192 87.2984 12.9301 87.5384 13.1941C87.7784 13.4581 87.9605 13.7693 88.0731 14.1078C88.1858 14.4463 88.2264 14.8046 88.1925 15.1597C88.227 15.5152 88.1869 15.874 88.0745 16.213C87.9622 16.552 87.7801 16.8638 87.5401 17.1283C87.3001 17.3928 87.0074 17.6041 86.6809 17.7488C86.3543 17.8934 86.0011 17.9681 85.6439 17.9681C85.2868 17.9681 84.9336 17.8934 84.607 17.7488C84.2804 17.6041 83.9878 17.3928 83.7477 17.1283C83.5077 16.8638 83.3257 16.552 83.2134 16.213C83.101 15.874 83.0608 15.5152 83.0954 15.1597ZM87.095 15.1597C87.095 13.9884 86.5688 13.3035 85.6454 13.3035C84.7184 13.3035 84.197 13.9884 84.197 15.1597C84.197 16.3404 84.7185 17.0201 85.6454 17.0201C86.5688 17.0201 87.095 16.3357 87.095 15.1597H87.095Z" fill="white"/>
<path d="M89.3152 16.3356C89.3152 15.363 90.0394 14.8022 91.3249 14.7225L92.7886 14.6382V14.1718C92.7886 13.6011 92.4113 13.2788 91.6824 13.2788C91.0871 13.2788 90.6746 13.4974 90.5562 13.8794H89.5238C89.6328 12.9513 90.5058 12.356 91.7316 12.356C93.0863 12.356 93.8503 13.0304 93.8503 14.1718V17.8638H92.8238V17.1044H92.7394C92.5681 17.3768 92.3277 17.5988 92.0425 17.7479C91.7574 17.8969 91.4378 17.9677 91.1164 17.9528C90.8895 17.9764 90.6602 17.9522 90.4433 17.8817C90.2264 17.8113 90.0267 17.6962 89.857 17.5438C89.6873 17.3915 89.5514 17.2052 89.4581 16.9971C89.3648 16.789 89.3161 16.5637 89.3152 16.3356ZM92.7886 15.8739V15.4222L91.4691 15.5065C90.7249 15.5563 90.3874 15.8095 90.3874 16.2858C90.3874 16.7721 90.8093 17.0552 91.3894 17.0552C91.5594 17.0724 91.7311 17.0552 91.8943 17.0047C92.0575 16.9542 92.2089 16.8714 92.3394 16.7612C92.47 16.6509 92.577 16.5156 92.6542 16.3632C92.7314 16.2108 92.7771 16.0444 92.7886 15.8739Z" fill="white"/>
<path d="M95.252 15.1599C95.252 13.4525 96.1297 12.3708 97.4949 12.3708C97.8326 12.3553 98.1678 12.4361 98.4612 12.604C98.7546 12.7719 98.9942 13.0198 99.1519 13.3188H99.2316V10.3511H100.298V17.864H99.2762V17.0102H99.1918C99.0219 17.3072 98.7739 17.5521 98.4748 17.7183C98.1757 17.8844 97.8369 17.9656 97.4949 17.953C96.1203 17.9531 95.252 16.8714 95.252 15.1599ZM96.3536 15.1599C96.3536 16.306 96.8938 16.9956 97.7973 16.9956C98.6961 16.9956 99.2516 16.296 99.2516 15.1646C99.2516 14.0384 98.6903 13.3288 97.7973 13.3288C96.8996 13.3288 96.3535 14.0232 96.3535 15.1599H96.3536Z" fill="white"/>
<path d="M104.71 15.1601C104.676 14.805 104.717 14.4467 104.829 14.1082C104.942 13.7697 105.124 13.4585 105.364 13.1946C105.604 12.9306 105.896 12.7197 106.223 12.5753C106.549 12.431 106.902 12.3564 107.258 12.3564C107.615 12.3564 107.968 12.431 108.294 12.5753C108.62 12.7197 108.913 12.9306 109.153 13.1946C109.393 13.4585 109.575 13.7697 109.687 14.1082C109.8 14.4467 109.841 14.805 109.807 15.1601C109.841 15.5156 109.801 15.8743 109.689 16.2134C109.576 16.5524 109.394 16.8642 109.154 17.1287C108.914 17.3932 108.622 17.6045 108.295 17.7492C107.969 17.8938 107.615 17.9685 107.258 17.9685C106.901 17.9685 106.548 17.8938 106.221 17.7492C105.895 17.6045 105.602 17.3932 105.362 17.1287C105.122 16.8642 104.94 16.5524 104.828 16.2134C104.716 15.8743 104.675 15.5156 104.71 15.1601ZM108.71 15.1601C108.71 13.9888 108.183 13.3039 107.26 13.3039C106.333 13.3039 105.812 13.9888 105.812 15.1601C105.812 16.3408 106.333 17.0205 107.26 17.0205C108.183 17.0204 108.71 16.3361 108.71 15.1601Z" fill="white"/>
<path d="M111.237 12.4607H112.264V13.3191H112.344C112.479 13.0108 112.707 12.7523 112.996 12.5798C113.285 12.4072 113.621 12.3291 113.956 12.3564C114.219 12.3366 114.483 12.3763 114.729 12.4724C114.974 12.5685 115.195 12.7186 115.375 12.9116C115.554 13.1046 115.688 13.3356 115.766 13.5874C115.845 13.8392 115.865 14.1053 115.826 14.3662V17.8642H114.76V14.6339C114.76 13.7656 114.383 13.3337 113.594 13.3337C113.416 13.3254 113.237 13.3558 113.072 13.4228C112.906 13.4898 112.757 13.5918 112.634 13.7219C112.512 13.852 112.419 14.007 112.362 14.1763C112.305 14.3457 112.285 14.5254 112.304 14.7031V17.8642H111.237V12.4607Z" fill="white"/>
<path d="M121.852 11.1152V12.4852H123.023V13.3834H121.852V16.1619C121.852 16.7279 122.085 16.9758 122.616 16.9758C122.752 16.9753 122.888 16.9671 123.023 16.9512V17.8394C122.831 17.8737 122.637 17.8919 122.443 17.8939C121.257 17.8939 120.785 17.4767 120.785 16.435V13.3834H119.927V12.4851H120.785V11.1152H121.852Z" fill="white"/>
<path d="M124.48 10.3511H125.537V13.3288H125.621C125.763 13.0176 125.997 12.7577 126.292 12.5845C126.587 12.4113 126.928 12.3332 127.269 12.3608C127.53 12.3466 127.792 12.3903 128.034 12.4887C128.277 12.5872 128.495 12.738 128.673 12.9304C128.851 13.1228 128.984 13.3521 129.063 13.6018C129.142 13.8516 129.164 14.1157 129.13 14.3753V17.864H128.062V14.6384C128.062 13.7753 127.66 13.3382 126.907 13.3382C126.723 13.3231 126.539 13.3483 126.366 13.412C126.194 13.4757 126.037 13.5763 125.908 13.7067C125.778 13.8372 125.679 13.9945 125.616 14.1674C125.554 14.3404 125.53 14.5249 125.546 14.7081V17.8639H124.48L124.48 10.3511Z" fill="white"/>
<path d="M135.348 16.4049C135.203 16.8987 134.889 17.3259 134.461 17.6117C134.033 17.8975 133.518 18.0236 133.006 17.9681C132.65 17.9775 132.296 17.9094 131.969 17.7683C131.642 17.6273 131.35 17.4168 131.113 17.1514C130.875 16.8861 130.698 16.5722 130.594 16.2316C130.49 15.891 130.461 15.5319 130.51 15.1791C130.463 14.8252 130.492 14.4653 130.596 14.1237C130.699 13.7821 130.875 13.4668 131.112 13.1991C131.348 12.9314 131.639 12.7176 131.965 12.5721C132.291 12.4267 132.644 12.353 133.002 12.356C134.505 12.356 135.412 13.3832 135.412 15.08V15.4522H131.596V15.5119C131.58 15.7102 131.605 15.9098 131.67 16.0979C131.735 16.286 131.838 16.4585 131.974 16.6042C132.109 16.75 132.274 16.8658 132.456 16.9443C132.639 17.0227 132.837 17.0621 133.035 17.0599C133.291 17.0905 133.549 17.0446 133.778 16.928C134.007 16.8113 134.196 16.6292 134.321 16.4048L135.348 16.4049ZM131.596 14.6635H134.326C134.339 14.4821 134.314 14.3 134.253 14.1287C134.192 13.9574 134.096 13.8009 133.971 13.669C133.845 13.5372 133.694 13.433 133.526 13.3632C133.358 13.2934 133.177 13.2595 132.996 13.2637C132.811 13.2613 132.628 13.296 132.457 13.3655C132.286 13.435 132.131 13.5381 132.001 13.6685C131.87 13.799 131.767 13.9542 131.698 14.1251C131.629 14.296 131.594 14.479 131.596 14.6635H131.596Z" fill="white"/>
</svg>
