<svg width="162" height="49" viewBox="0 0 162 49" fill="none" xmlns="http://www.w3.org/2000/svg">
<path d="M156 0.226562H6.00034C2.68664 0.226562 0.000366211 2.91284 0.000366211 6.22653V42.2264C0.000366211 45.54 2.68664 48.2263 6.00034 48.2263H156C159.313 48.2263 162 45.54 162 42.2264V6.22653C162 2.91284 159.313 0.226562 156 0.226562Z" fill="black"/>
<path d="M156 1.18632C157.336 1.18786 158.617 1.71939 159.562 2.66429C160.507 3.60919 161.038 4.89029 161.039 6.22653V42.2264C161.038 43.5626 160.507 44.8437 159.562 45.7886C158.617 46.7335 157.336 47.265 156 47.2666H6.00034C4.66408 47.265 3.383 46.7335 2.43815 45.7886C1.4933 44.8437 0.961838 43.5626 0.960361 42.2264V6.22653C0.961816 4.89027 1.49327 3.60916 2.43813 2.66425C3.38298 1.71935 4.66408 1.18784 6.00034 1.18632H156ZM156 0.226562H6.00034C4.41048 0.231216 2.88706 0.864848 1.76286 1.98905C0.638652 3.11326 0.00501991 4.63667 0.000366211 6.22653L0.000366211 42.2264C0.00501991 43.8162 0.638652 45.3396 1.76286 46.4638C2.88706 47.588 4.41048 48.2217 6.00034 48.2263H156C157.589 48.2217 159.113 47.588 160.237 46.4638C161.361 45.3396 161.995 43.8162 162 42.2264V6.22653C161.995 4.63667 161.361 3.11326 160.237 1.98905C159.113 0.864848 157.589 0.231216 156 0.226562Z" fill="#A6A6A6"/>
<path d="M56.9022 12.5185C56.924 12.9588 56.856 13.3989 56.7023 13.8121C56.5485 14.2253 56.3123 14.6029 56.008 14.9219C55.6669 15.2756 55.255 15.5534 54.7993 15.7369C54.3435 15.9205 53.8541 16.0058 53.3631 15.9872C52.8689 15.9916 52.3789 15.8972 51.9218 15.7095C51.4646 15.5218 51.0496 15.2447 50.7011 14.8943C50.3527 14.544 50.0777 14.1275 49.8925 13.6694C49.7073 13.2112 49.6155 12.7207 49.6226 12.2266C49.6156 11.7325 49.7074 11.242 49.8926 10.7838C50.0778 10.3257 50.3528 9.90919 50.7012 9.5588C51.0497 9.20842 51.4647 8.9312 51.9218 8.74345C52.3789 8.55569 52.8689 8.46118 53.3631 8.46547C53.8711 8.46394 54.3741 8.56665 54.8409 8.76727C55.2744 8.943 55.6603 9.21864 55.9671 9.57175L55.3342 10.2051C55.093 9.92125 54.7899 9.69659 54.4481 9.54847C54.1063 9.40035 53.7351 9.33273 53.3631 9.35083C52.9886 9.34889 52.6175 9.42255 52.2722 9.56741C51.9268 9.71226 51.6143 9.92532 51.3532 10.1938C51.0922 10.4623 50.888 10.7808 50.7529 11.1301C50.6178 11.4794 50.5546 11.8523 50.5671 12.2266C50.5582 12.7872 50.7159 13.3379 51.0204 13.8088C51.3248 14.2796 51.7622 14.6495 52.2771 14.8714C52.792 15.0933 53.3612 15.1574 53.9126 15.0554C54.4639 14.9534 54.9726 14.69 55.374 14.2985C55.7435 13.9004 55.9577 13.3828 55.9775 12.8401H53.3631V11.9752H56.8518C56.8848 12.1544 56.9017 12.3362 56.9022 12.5185Z" fill="white" stroke="white" stroke-width="0.2" stroke-miterlimit="10"/>
<path d="M62.4333 9.51122H59.1545V11.794H62.1111V12.6589H59.1545V14.9417H62.4333V15.8264H58.2299V8.62646H62.4333V9.51122Z" fill="white" stroke="white" stroke-width="0.2" stroke-miterlimit="10"/>
<path d="M66.3344 15.8264H65.4086V9.51122H63.3977V8.62646H68.3454V9.51122H66.3344V15.8264Z" fill="white" stroke="white" stroke-width="0.2" stroke-miterlimit="10"/>
<path d="M71.9255 15.8264V8.62646H72.8501V15.8264H71.9255Z" fill="white" stroke="white" stroke-width="0.2" stroke-miterlimit="10"/>
<path d="M76.954 15.8264H76.0282V9.51122H74.0173V8.62646H78.9649V9.51122H76.954V15.8264Z" fill="white" stroke="white" stroke-width="0.2" stroke-miterlimit="10"/>
<path d="M88.3311 14.896C87.6303 15.5947 86.6811 15.987 85.6915 15.987C84.7019 15.987 83.7527 15.5947 83.0519 14.896C82.7052 14.5448 82.4326 14.1275 82.2504 13.669C82.0682 13.2104 81.9801 12.7198 81.9913 12.2265C81.9801 11.7331 82.0682 11.2426 82.2504 10.784C82.4326 10.3254 82.7052 9.90812 83.0519 9.55697C83.3982 9.21049 83.8096 8.93573 84.2623 8.74841C84.715 8.56109 85.2002 8.4649 85.6901 8.46533C86.18 8.46577 86.6651 8.56282 87.1175 8.75094C87.5698 8.93906 87.9807 9.21455 88.3264 9.56165C88.6734 9.91187 88.9464 10.3282 89.1294 10.786C89.3124 11.2437 89.4016 11.7336 89.3917 12.2265C89.4026 12.7198 89.3143 13.2102 89.1321 13.6688C88.9499 14.1273 88.6776 14.5446 88.3311 14.896ZM83.735 14.2931C84.254 14.8113 84.9575 15.1023 85.6909 15.1023C86.4243 15.1023 87.1277 14.8113 87.6468 14.2931C87.9129 14.0206 88.1211 13.697 88.2586 13.3418C88.3962 12.9866 88.4603 12.6072 88.4471 12.2265C88.4603 11.8458 88.3962 11.4664 88.2586 11.1112C88.1211 10.756 87.9129 10.4323 87.6468 10.1598C87.1277 9.64169 86.4243 9.35067 85.6909 9.35067C84.9575 9.35067 84.254 9.64169 83.735 10.1598C83.4692 10.4326 83.2614 10.7562 83.1241 11.1114C82.9867 11.4666 82.9227 11.8459 82.9358 12.2265C82.9227 12.6071 82.9867 12.9864 83.1241 13.3415C83.2614 13.6967 83.4692 14.0204 83.735 14.2931Z" fill="white" stroke="white" stroke-width="0.2" stroke-miterlimit="10"/>
<path d="M90.6901 15.8264V8.62646H91.8163L95.3154 14.2274H95.3553L95.3154 12.8399V8.62646H96.2412V15.8264H95.2756L91.6146 9.95414H91.5748L91.6146 11.3417V15.8264H90.6901Z" fill="white" stroke="white" stroke-width="0.2" stroke-miterlimit="10"/>
<path d="M81.763 26.3287C80.7544 26.3325 79.7695 26.6351 78.9327 27.1982C78.096 27.7614 77.4448 28.5598 77.0615 29.4927C76.6781 30.4257 76.5798 31.4512 76.779 32.44C76.9781 33.4288 77.4657 34.3364 78.1802 35.0482C78.8948 35.7601 79.8042 36.2442 80.7937 36.4396C81.7833 36.6349 82.8085 36.5327 83.7399 36.1458C84.6714 35.759 85.4674 35.1048 86.0273 34.2659C86.5873 33.427 86.8861 32.441 86.8861 31.4324C86.896 30.7578 86.7701 30.088 86.5159 29.4631C86.2617 28.8381 85.8844 28.2707 85.4064 27.7945C84.9284 27.3183 84.3596 26.9432 83.7336 26.6914C83.1077 26.4395 82.4375 26.3162 81.763 26.3287ZM81.763 34.5256C81.1418 34.5699 80.5217 34.4261 79.9834 34.1131C79.4451 33.8 79.0135 33.3321 78.7449 32.7703C78.4762 32.2086 78.3829 31.5789 78.4771 30.9633C78.5713 30.3478 78.8486 29.7749 79.273 29.3191C79.6974 28.8634 80.2491 28.546 80.8564 28.4082C81.4637 28.2705 82.0984 28.3188 82.6779 28.5468C83.2574 28.7748 83.7548 29.172 84.1053 29.6867C84.4559 30.2014 84.6434 30.8097 84.6434 31.4324C84.6623 31.8258 84.6022 32.219 84.4668 32.5888C84.3314 32.9587 84.1234 33.2977 83.855 33.5859C83.5866 33.8742 83.2632 34.1058 82.9039 34.2672C82.5446 34.4285 82.1567 34.5164 81.763 34.5256ZM70.5869 26.3287C69.5783 26.3325 68.5934 26.635 67.7567 27.1982C66.9199 27.7613 66.2687 28.5597 65.8854 29.4926C65.502 30.4256 65.4037 31.4512 65.6028 32.4399C65.8019 33.4287 66.2895 34.3363 67.0041 35.0482C67.7186 35.76 68.628 36.2442 69.6176 36.4396C70.6071 36.6349 71.6323 36.5327 72.5638 36.1459C73.4952 35.759 74.2912 35.1048 74.8512 34.2659C75.4111 33.427 75.71 32.441 75.7099 31.4324C75.7199 30.7578 75.594 30.0881 75.3398 29.4631C75.0856 28.8382 74.7083 28.2707 74.2303 27.7945C73.7524 27.3184 73.1835 26.9432 72.5576 26.6914C71.9317 26.4396 71.2615 26.3162 70.5869 26.3287ZM70.5869 34.5256C69.9658 34.5699 69.3457 34.4261 68.8074 34.1131C68.2691 33.8 67.8375 33.3321 67.5688 32.7703C67.3002 32.2086 67.2069 31.5789 67.3011 30.9633C67.3953 30.3478 67.6726 29.7749 68.097 29.3191C68.5214 28.8634 69.0731 28.546 69.6804 28.4082C70.2877 28.2705 70.9224 28.3188 71.5019 28.5468C72.0813 28.7748 72.5787 29.172 72.9293 29.6867C73.2799 30.2014 73.4674 30.8097 73.4674 31.4324C73.4863 31.8258 73.4262 32.219 73.2908 32.5888C73.1554 32.9587 72.9474 33.2977 72.679 33.586C72.4106 33.8742 72.0872 34.1058 71.7279 34.2672C71.3686 34.4286 70.9807 34.5164 70.5869 34.5256ZM57.2924 27.8947V30.0598H62.4736C62.3989 31.0754 61.9833 32.0359 61.2943 32.7857C60.7751 33.315 60.1507 33.7295 59.4614 34.0025C58.7721 34.2755 58.0332 34.401 57.2924 34.3709C55.778 34.3504 54.3326 33.7344 53.2689 32.6562C52.2052 31.5781 51.6089 30.1244 51.6089 28.6099C51.6089 27.0953 52.2052 25.6417 53.2689 24.5635C54.3326 23.4853 55.778 22.8693 57.2924 22.8488C58.7471 22.8298 60.1505 23.3856 61.1977 24.3954L62.7249 22.8681C62.0104 22.1608 61.1618 21.6031 60.229 21.228C59.2961 20.8529 58.2978 20.6678 57.2924 20.6835C56.2418 20.6683 55.1987 20.862 54.2236 21.2534C53.2485 21.6449 52.361 22.2263 51.6126 22.9639C50.8643 23.7014 50.27 24.5804 49.8644 25.5496C49.4588 26.5189 49.2499 27.5591 49.2499 28.6099C49.2499 29.6606 49.4588 30.7008 49.8644 31.6701C50.27 32.6394 50.8643 33.5183 51.6126 34.2559C52.361 34.9934 53.2485 35.5748 54.2236 35.9663C55.1987 36.3578 56.2418 36.5515 57.2924 36.5362C58.319 36.5788 59.3428 36.4025 60.2961 36.0193C61.2494 35.636 62.1102 35.0543 62.8215 34.313C64.0844 32.9345 64.7576 31.1164 64.6969 29.2479C64.7018 28.7941 64.6629 28.341 64.5807 27.8947H57.2924ZM111.662 29.5765C111.355 28.652 110.772 27.8444 109.99 27.2634C109.208 26.6823 108.267 26.356 107.293 26.3287C106.637 26.3327 105.989 26.4697 105.388 26.7314C104.786 26.993 104.244 27.3739 103.795 27.851C103.345 28.328 102.996 28.8913 102.77 29.5069C102.544 30.1225 102.445 30.7775 102.479 31.4324C102.465 32.1034 102.585 32.7705 102.834 33.3938C103.083 34.0172 103.455 34.584 103.927 35.0604C104.4 35.5368 104.964 35.913 105.586 36.1666C106.207 36.4201 106.873 36.5458 107.544 36.5362C108.385 36.5408 109.214 36.3366 109.956 35.9418C110.699 35.547 111.331 34.974 111.797 34.2743L110.057 33.1144C109.797 33.5473 109.428 33.905 108.988 34.1524C108.547 34.3998 108.05 34.5284 107.544 34.5256C107.024 34.5455 106.51 34.4087 106.069 34.1329C105.628 33.8571 105.28 33.4551 105.07 32.979L111.894 30.1565L111.662 29.5765ZM104.703 31.2778C104.678 30.9063 104.729 30.5338 104.85 30.182C104.972 29.8302 105.163 29.5062 105.411 29.229C105.66 28.9518 105.961 28.7269 106.297 28.5675C106.634 28.4081 106.998 28.3173 107.37 28.3006C107.757 28.2752 108.144 28.3642 108.481 28.5568C108.817 28.7493 109.09 29.0367 109.265 29.3833L104.703 31.2778ZM99.154 36.2268H101.397V21.225H99.154V36.2268ZM95.4808 27.4693H95.4035C95.0626 27.0988 94.6465 26.8055 94.1831 26.6088C93.7196 26.4121 93.2196 26.3166 92.7163 26.3287C91.4002 26.3847 90.1567 26.9469 89.2453 27.8979C88.3339 28.8489 87.8251 30.1152 87.8251 31.4324C87.8251 32.7497 88.3339 34.016 89.2453 34.967C90.1567 35.918 91.4002 36.4802 92.7163 36.5362C93.2215 36.5496 93.7237 36.4528 94.1878 36.2525C94.6519 36.0522 95.0667 35.7532 95.4035 35.3763H95.4808V36.1109C95.4808 38.0635 94.4369 39.1074 92.7549 39.1074C92.1943 39.094 91.6505 38.914 91.1926 38.5904C90.7347 38.2667 90.3835 37.8141 90.1838 37.2901L88.2312 38.1022C88.5992 38.9982 89.2263 39.7639 90.0323 40.3012C90.8382 40.8385 91.7863 41.1229 92.7549 41.118C95.3842 41.118 97.6074 39.5715 97.6074 35.8016V26.6379H95.4808V27.4693ZM92.9097 34.5256C92.1346 34.4599 91.4124 34.1055 90.8861 33.5327C90.3598 32.9599 90.0677 32.2103 90.0677 31.4324C90.0677 30.6545 90.3598 29.905 90.8861 29.3322C91.4124 28.7593 92.1346 28.405 92.9097 28.3393C93.2953 28.3581 93.6732 28.4544 94.0208 28.6224C94.3685 28.7903 94.6787 29.0266 94.9331 29.3171C95.1874 29.6075 95.3807 29.9462 95.5014 30.3129C95.6221 30.6797 95.6677 31.067 95.6355 31.4517C95.6656 31.834 95.6184 32.2186 95.4965 32.5822C95.3746 32.9459 95.1806 33.2812 94.9262 33.5682C94.6717 33.8552 94.362 34.0879 94.0155 34.2524C93.669 34.4169 93.2929 34.5098 92.9097 34.5256ZM122.167 21.2252H116.801V36.2268H119.04V30.5432H122.167C122.8 30.5779 123.434 30.4831 124.029 30.2647C124.625 30.0462 125.169 29.7087 125.63 29.2726C126.091 28.8366 126.457 28.3112 126.708 27.7286C126.959 27.146 127.088 26.5185 127.088 25.8842C127.088 25.2499 126.959 24.6224 126.708 24.0398C126.457 23.4572 126.091 22.9318 125.63 22.4958C125.169 22.0597 124.625 21.7222 124.029 21.5037C123.434 21.2853 122.8 21.1905 122.167 21.2252ZM122.225 28.4554H119.04V23.3131H122.225C122.567 23.306 122.907 23.3673 123.225 23.4933C123.543 23.6193 123.833 23.8076 124.077 24.047C124.322 24.2865 124.516 24.5723 124.649 24.8878C124.781 25.2033 124.85 25.5421 124.85 25.8843C124.85 26.2265 124.781 26.5652 124.649 26.8807C124.516 27.1962 124.322 27.482 124.077 27.7215C123.833 27.9609 123.543 28.1492 123.225 28.2752C122.907 28.4013 122.567 28.4625 122.225 28.4554ZM136.063 26.3011C135.245 26.2534 134.432 26.4453 133.722 26.8533C133.013 27.2612 132.437 27.8675 132.067 28.5977L134.055 29.4277C134.252 29.0652 134.551 28.7681 134.914 28.5727C135.278 28.3773 135.69 28.2921 136.101 28.3275C136.669 28.2721 137.236 28.4441 137.677 28.8058C138.119 29.1676 138.399 29.6896 138.456 30.2575V30.4119C137.737 30.0299 136.935 29.831 136.12 29.8329C133.978 29.8329 131.797 31.0102 131.797 33.2104C131.818 33.6741 131.932 34.1289 132.132 34.5478C132.332 34.9666 132.614 35.3411 132.961 35.6489C133.309 35.9567 133.714 36.1916 134.154 36.3396C134.594 36.4877 135.059 36.5458 135.522 36.5106C136.086 36.5438 136.648 36.4252 137.151 36.1673C137.653 35.9093 138.077 35.5214 138.379 35.0439H138.456V36.2019H140.617V30.4505C140.617 27.7872 138.629 26.3011 136.063 26.3011ZM135.792 34.5227C135.059 34.5227 134.036 34.1561 134.036 33.2489C134.036 32.0911 135.31 31.6471 136.41 31.6471C137.125 31.628 137.831 31.8013 138.456 32.1489C138.373 32.7996 138.058 33.3985 137.569 33.8349C137.079 34.2712 136.448 34.5156 135.792 34.5227ZM148.492 26.6292L145.925 33.1331H145.847L143.184 26.6292H140.772L144.767 35.7194L142.489 40.7759H144.825L150.981 26.6292H148.492ZM128.323 36.2268H130.562V21.2252H128.323V36.2268Z" fill="white"/>
<path d="M12.5226 9.27218C12.1291 9.74266 11.9304 10.3458 11.9673 10.958V37.4972C11.9303 38.1095 12.129 38.7127 12.5226 39.1831L12.6114 39.2696L27.4781 24.403V24.0523L12.6114 9.18506L12.5226 9.27218Z" fill="url(#paint0_linear_5399_102)"/>
<path d="M32.4334 29.3606L27.4781 24.4029V24.0522L32.4346 19.0957L32.5463 19.1594L38.4177 22.4955C40.0948 23.4483 40.0948 25.0074 38.4177 25.9607L32.5463 29.2969L32.4334 29.3606Z" fill="url(#paint1_linear_5399_102)"/>
<path d="M32.5464 29.2962L27.4782 24.2275L12.5227 39.1829C12.8644 39.4843 13.3008 39.6567 13.7563 39.6701C14.2117 39.6836 14.6575 39.5373 15.0164 39.2566L32.5464 29.2962Z" fill="url(#paint2_linear_5399_102)"/>
<path d="M32.5464 19.159L15.0164 9.19855C14.6575 8.91786 14.2117 8.77158 13.7563 8.78503C13.3008 8.79849 12.8644 8.97084 12.5227 9.27223L27.4782 24.2278L32.5464 19.159Z" fill="url(#paint3_linear_5399_102)"/>
<path opacity="0.2" d="M32.4347 29.1851L15.0164 39.0818C14.6713 39.3445 14.2501 39.4878 13.8164 39.4901C13.3827 39.4925 12.96 39.3536 12.6121 39.0946L12.5227 39.184L12.6115 39.2705L12.6121 39.2699C12.9599 39.5291 13.3827 39.668 13.8164 39.6657C14.2502 39.6634 14.6714 39.5199 15.0164 39.2571L32.5464 29.2967L32.4347 29.1851Z" fill="black"/>
<path opacity="0.12" d="M12.5227 39.0086C12.1292 38.5381 11.9306 37.935 11.9673 37.3228V37.4981C11.9305 38.1103 12.1292 38.7135 12.5227 39.1839L12.6121 39.0945L12.5227 39.0086Z" fill="black"/>
<path opacity="0.12" d="M38.4177 25.7848L32.4347 29.1846L32.5464 29.2962L38.4177 25.9601C38.7631 25.8102 39.062 25.5705 39.2832 25.2658C39.5045 24.9612 39.64 24.6028 39.6757 24.228C39.6015 24.5674 39.4491 24.8849 39.2307 25.1551C39.0124 25.4253 38.734 25.6409 38.4177 25.7848Z" fill="black"/>
<path opacity="0.25" d="M15.0164 9.37467L38.4177 22.6706C38.7341 22.8144 39.0125 23.0301 39.2309 23.3004C39.4493 23.5708 39.6016 23.8884 39.6756 24.228C39.6402 23.853 39.5048 23.4944 39.2835 23.1897C39.0622 22.8849 38.7632 22.6451 38.4177 22.4953L15.0164 9.19935C13.3392 8.24643 11.9673 9.03795 11.9673 10.9589V11.1342C11.9673 9.21339 13.3392 8.42187 15.0164 9.37467Z" fill="white"/>
<defs>
<linearGradient id="paint0_linear_5399_102" x1="26.1597" y1="10.6782" x2="6.02096" y2="30.817" gradientUnits="userSpaceOnUse">
<stop stop-color="#00A0FF"/>
<stop offset="0.00657" stop-color="#00A1FF"/>
<stop offset="0.2601" stop-color="#00BEFF"/>
<stop offset="0.5122" stop-color="#00D2FF"/>
<stop offset="0.7604" stop-color="#00DFFF"/>
<stop offset="1" stop-color="#00E3FF"/>
</linearGradient>
<linearGradient id="paint1_linear_5399_102" x1="40.6013" y1="24.2281" x2="11.5651" y2="24.2281" gradientUnits="userSpaceOnUse">
<stop stop-color="#FFE000"/>
<stop offset="0.4087" stop-color="#FFBD00"/>
<stop offset="0.7754" stop-color="#FFA500"/>
<stop offset="1" stop-color="#FF9C00"/>
</linearGradient>
<linearGradient id="paint2_linear_5399_102" x1="29.7925" y1="26.9816" x2="2.48268" y2="54.2914" gradientUnits="userSpaceOnUse">
<stop stop-color="#FF3A44"/>
<stop offset="1" stop-color="#C31162"/>
</linearGradient>
<linearGradient id="paint3_linear_5399_102" x1="8.75704" y1="0.438089" x2="20.952" y2="12.6331" gradientUnits="userSpaceOnUse">
<stop stop-color="#32A071"/>
<stop offset="0.0685" stop-color="#2DA771"/>
<stop offset="0.4762" stop-color="#15CF74"/>
<stop offset="0.8009" stop-color="#06E775"/>
<stop offset="1" stop-color="#00F076"/>
</linearGradient>
</defs>
</svg>
