<svg width="24" height="25" viewBox="0 0 24 25" fill="none" xmlns="http://www.w3.org/2000/svg">
<path opacity="0.1" fill-rule="evenodd" clip-rule="evenodd" d="M0 12.9883C0 6.36086 5.37258 0.988281 12 0.988281C18.6274 0.988281 24 6.36086 24 12.9883C24 19.6157 18.6274 24.9883 12 24.9883C5.37258 24.9883 0 19.6157 0 12.9883Z" fill="white"/>
<path fill-rule="evenodd" clip-rule="evenodd" d="M12.0006 6.58838C10.2624 6.58838 10.0443 6.59598 9.36161 6.62705C8.68027 6.65825 8.2152 6.76611 7.80827 6.92438C7.38733 7.08785 7.03026 7.30652 6.67452 7.66239C6.31852 8.01813 6.09985 8.3752 5.93585 8.796C5.77718 9.20307 5.66918 9.66828 5.63851 10.3494C5.60798 11.032 5.59998 11.2503 5.59998 12.9884C5.59998 14.7266 5.60771 14.9441 5.63864 15.6267C5.66998 16.3081 5.77784 16.7732 5.93598 17.1801C6.09958 17.601 6.31825 17.9581 6.67412 18.3138C7.02972 18.6698 7.38679 18.889 7.80747 19.0525C8.21467 19.2108 8.67987 19.3186 9.36108 19.3498C10.0438 19.3809 10.2618 19.3885 11.9998 19.3885C13.7381 19.3885 13.9555 19.3809 14.6382 19.3498C15.3195 19.3186 15.7851 19.2108 16.1924 19.0525C16.6132 18.889 16.9697 18.6698 17.3253 18.3138C17.6813 17.9581 17.9 17.601 18.064 17.1802C18.2213 16.7732 18.3293 16.3079 18.3613 15.6269C18.392 14.9442 18.4 14.7266 18.4 12.9884C18.4 11.2503 18.392 11.0322 18.3613 10.3495C18.3293 9.66814 18.2213 9.20307 18.064 8.79614C17.9 8.3752 17.6813 8.01813 17.3253 7.66239C16.9693 7.30639 16.6133 7.08772 16.192 6.92438C15.7839 6.76611 15.3186 6.65825 14.6373 6.62705C13.9546 6.59598 13.7373 6.58838 11.9986 6.58838H12.0006ZM11.4264 7.74171C11.5968 7.74144 11.7869 7.74171 12.0005 7.74171C13.7094 7.74171 13.9119 7.74784 14.5867 7.77851C15.2107 7.80704 15.5494 7.91131 15.775 7.99891C16.0737 8.11491 16.2866 8.25358 16.5105 8.47758C16.7345 8.70158 16.8731 8.91492 16.9894 9.21359C17.077 9.43892 17.1814 9.77759 17.2098 10.4016C17.2405 11.0763 17.2471 11.2789 17.2471 12.987C17.2471 14.695 17.2405 14.8976 17.2098 15.5723C17.1813 16.1963 17.077 16.535 16.9894 16.7603C16.8734 17.059 16.7345 17.2717 16.5105 17.4955C16.2865 17.7195 16.0738 17.8582 15.775 17.9742C15.5497 18.0622 15.2107 18.1662 14.5867 18.1947C13.912 18.2254 13.7094 18.2321 12.0005 18.2321C10.2916 18.2321 10.0891 18.2254 9.41439 18.1947C8.79038 18.1659 8.45171 18.0617 8.22598 17.9741C7.92731 17.8581 7.71397 17.7194 7.48997 17.4954C7.26597 17.2714 7.1273 17.0586 7.01103 16.7598C6.92343 16.5345 6.81903 16.1958 6.79063 15.5718C6.75996 14.8971 6.75383 14.6944 6.75383 12.9854C6.75383 11.2763 6.75996 11.0747 6.79063 10.4C6.81916 9.77599 6.92343 9.43732 7.01103 9.21172C7.12703 8.91305 7.26597 8.69972 7.48997 8.47571C7.71397 8.25171 7.92731 8.11304 8.22598 7.99678C8.45158 7.90877 8.79038 7.80477 9.41439 7.77611C10.0048 7.74944 10.2336 7.74144 11.4264 7.74011V7.74171ZM15.4169 8.80439C14.9928 8.80439 14.6488 9.14799 14.6488 9.57213C14.6488 9.99613 14.9928 10.3401 15.4169 10.3401C15.8409 10.3401 16.1849 9.99613 16.1849 9.57213C16.1849 9.14812 15.8409 8.80439 15.4169 8.80439ZM12.0006 9.70173C10.1855 9.70173 8.71389 11.1733 8.71389 12.9884C8.71389 14.8035 10.1855 16.2745 12.0006 16.2745C13.8157 16.2745 15.2868 14.8035 15.2868 12.9884C15.2868 11.1733 13.8157 9.70173 12.0006 9.70173ZM12.0006 10.8551C13.1787 10.8551 14.1339 11.8101 14.1339 12.9884C14.1339 14.1666 13.1787 15.1218 12.0006 15.1218C10.8223 15.1218 9.86721 14.1666 9.86721 12.9884C9.86721 11.8101 10.8223 10.8551 12.0006 10.8551Z" fill="white"/>
</svg>
