<svg width="14" height="12" viewBox="0 0 14 12" fill="none" xmlns="http://www.w3.org/2000/svg">
<g clip-path="url(#clip0_4690_21264)">
<path fill-rule="evenodd" clip-rule="evenodd" d="M13.2 12H10.2826V7.78152C10.2826 6.67733 9.82628 5.92354 8.82277 5.92354C8.0552 5.92354 7.62833 6.43222 7.42965 6.92246C7.35514 7.09842 7.36679 7.34353 7.36679 7.58865V12H4.47658C4.47658 12 4.51383 4.52738 4.47658 3.84812H7.36679V5.12749C7.53753 4.5681 8.46109 3.76974 9.93492 3.76974C11.7634 3.76974 13.2 4.94231 13.2 7.46725V12ZM1.55376 2.82846H1.53514C0.603812 2.82846 0 2.20529 0 1.41538C0 0.610101 0.621659 0 1.57161 0C2.52079 0 3.10442 0.608572 3.12305 1.41308C3.12305 2.20299 2.52079 2.82846 1.55376 2.82846ZM0.332941 3.84812H2.90574V12H0.332941V3.84812Z" fill="white"/>
</g>
<defs>
<clipPath id="clip0_4690_21264">
<rect width="13.2" height="12" fill="white"/>
</clipPath>
</defs>
</svg>
