<svg width="143" height="38" viewBox="0 0 143 38" fill="none" xmlns="http://www.w3.org/2000/svg">
<g clip-path="url(#clip0_4690_21238)">
<path d="M18.8751 27.699C20.8881 27.6947 22.842 27.0187 24.4272 25.778C26.0123 24.5373 27.1379 22.8029 27.6255 20.8499C27.6923 20.59 27.6988 20.3184 27.6446 20.0556C27.5904 19.7928 27.4769 19.5459 27.3127 19.3337C27.1486 19.1214 26.9382 18.9494 26.6975 18.8309C26.4569 18.7123 26.1923 18.6502 25.924 18.6494L11.7907 18.6776C11.5224 18.6792 11.258 18.7422 11.0177 18.8616C10.7774 18.981 10.5676 19.1538 10.4042 19.3666C10.2409 19.5795 10.1284 19.8269 10.0753 20.0899C10.0221 20.353 10.0298 20.6246 10.0977 20.8842C10.5928 22.8355 11.7252 24.5655 13.3152 25.8001C14.9053 27.0346 16.8621 27.7029 18.8751 27.699Z" fill="#00AEEF"/>
<path d="M37.7134 20.477C38.032 16.1439 36.8408 11.834 34.3422 8.27942L32.523 10.1072C31.866 10.7519 31.3979 11.5641 31.1695 12.4558C30.9411 13.3475 30.9611 14.2847 31.2272 15.1659C32.1123 17.9364 32.0415 20.9239 31.0261 23.6494C30.0107 26.3749 28.1096 28.6804 25.6275 30.1965C23.1453 31.7125 20.226 32.3512 17.3376 32.0101C14.4492 31.669 11.759 30.3679 9.69829 28.3154C7.63758 26.2629 6.32576 23.5779 5.97315 20.6909C5.62053 17.8038 6.24755 14.882 7.75367 12.3939C9.25979 9.90573 11.5578 7.99538 14.2792 6.96912C17.0006 5.94285 19.9878 5.86012 22.7618 6.73418C23.6434 6.99685 24.5801 7.01331 25.4703 6.78178C26.3606 6.55024 27.1706 6.07953 27.8125 5.42064L29.6336 3.5916C26.2107 1.2208 22.1001 0.0480818 17.9415 0.25598C13.783 0.463878 9.8098 2.04073 6.64045 4.7411C3.4711 7.44146 1.28338 11.1138 0.417817 15.1866C-0.447751 19.2594 0.0573947 23.5041 1.85463 27.26C3.65186 31.0159 6.64035 34.0722 10.3549 35.9534C14.0695 37.8345 18.3018 38.4349 22.393 37.661C26.4842 36.8871 30.2047 34.7824 32.9756 31.6745C35.7465 28.5666 37.4122 24.6299 37.7134 20.477Z" fill="#00CE7C"/>
<path d="M37.5032 10.3902C37.2669 10.3906 37.0359 10.3209 36.8392 10.19C36.6426 10.059 36.4892 9.87273 36.3984 9.65461C36.3076 9.4365 36.2836 9.19637 36.3293 8.96458C36.3749 8.73279 36.4883 8.51975 36.6551 8.35239C36.8218 8.18504 37.0345 8.07089 37.2661 8.02437C37.4977 7.97785 37.7379 8.00105 37.9564 8.09103C38.1748 8.18102 38.3617 8.33376 38.4933 8.52993C38.625 8.7261 38.6955 8.95691 38.696 9.19316C38.6964 9.35013 38.666 9.50567 38.6062 9.65084C38.5465 9.79602 38.4587 9.92798 38.3479 10.0392C38.2371 10.1504 38.1055 10.2386 37.9605 10.2989C37.8156 10.3591 37.6601 10.3902 37.5032 10.3902ZM37.4989 8.22163C37.3054 8.2181 37.1153 8.27227 36.9528 8.37724C36.7902 8.4822 36.6626 8.63319 36.5862 8.81097C36.5099 8.98874 36.4882 9.18524 36.5239 9.37539C36.5597 9.56555 36.6512 9.74075 36.787 9.87865C36.9227 10.0166 37.0964 10.1109 37.286 10.1497C37.4755 10.1884 37.6723 10.1699 37.8513 10.0963C38.0303 10.0228 38.1833 9.89759 38.2908 9.73674C38.3983 9.57588 38.4555 9.38664 38.4551 9.19316C38.4568 9.06642 38.4333 8.94061 38.3861 8.823C38.3388 8.7054 38.2686 8.59834 38.1797 8.50804C38.0908 8.41773 37.9848 8.34598 37.8679 8.29692C37.7511 8.24786 37.6256 8.22248 37.4989 8.22225V8.22163ZM37.7533 9.83859L37.4878 9.32678H37.323V9.83859H37.0851V8.5514H37.5706C37.6241 8.5491 37.6775 8.55757 37.7277 8.57631C37.7778 8.59506 37.8237 8.62369 37.8626 8.66051C37.9015 8.69733 37.9325 8.74159 37.954 8.79065C37.9754 8.83972 37.9868 8.8926 37.9874 8.94614C37.9888 9.02428 37.9648 9.10075 37.9189 9.16401C37.873 9.22726 37.8077 9.27386 37.733 9.29674L38.0217 9.84043L37.7533 9.83859ZM37.5399 8.74938H37.3224V9.13922H37.5399C37.5668 9.14135 37.5939 9.1379 37.6194 9.12907C37.6449 9.12024 37.6683 9.10623 37.6881 9.08793C37.7079 9.06962 37.7237 9.04741 37.7345 9.02269C37.7454 8.99797 37.7509 8.97128 37.7509 8.9443C37.7509 8.91732 37.7454 8.89063 37.7345 8.86591C37.7237 8.84119 37.7079 8.81898 37.6881 8.80067C37.6683 8.78236 37.6449 8.76836 37.6194 8.75953C37.5939 8.7507 37.5668 8.74725 37.5399 8.74938Z" fill="#00CE7C"/>
<path d="M59.1498 20.6449C58.8895 20.3079 58.5599 20.0307 58.1832 19.8321C57.7702 19.6053 57.306 19.488 56.8347 19.4913C56.3173 19.4625 55.7996 19.5437 55.3157 19.7294C54.8318 19.9152 54.3928 20.2012 54.0274 20.5688C53.3401 21.3314 52.98 22.3334 53.0247 23.359C52.979 24.3985 53.343 25.4144 54.0385 26.1883C54.4052 26.5542 54.8452 26.8384 55.3296 27.0221C55.8139 27.2058 56.3317 27.2849 56.8488 27.2543C57.3242 27.2629 57.7921 27.1353 58.1973 26.8865C58.5619 26.6616 58.8871 26.3785 59.1603 26.0486L62.2955 29.3438C61.5742 30.0774 60.6852 30.6244 59.7052 30.9374C57.688 31.6074 55.5033 31.5739 53.5077 30.8424C52.5112 30.4781 51.5934 29.927 50.8034 29.2187C50.0249 28.5132 49.4027 27.6526 48.9768 26.6922C48.536 25.6402 48.3079 24.5114 48.3054 23.3708C48.303 22.2302 48.5264 21.1005 48.9627 20.0466C49.3864 19.0847 50.0057 18.2216 50.7813 17.5121C51.5677 16.8003 52.4832 16.2458 53.4783 15.8786C55.4704 15.1397 57.654 15.0964 59.6739 15.756C60.6544 16.0653 61.5453 16.6078 62.2704 17.3368L59.1498 20.6449Z" fill="white"/>
<path d="M68.6836 7.16211L68.7056 17.7544H68.7914C69.095 17.0615 69.593 16.4715 70.2251 16.056C71.0661 15.4937 72.0646 15.2145 73.0753 15.2591C74.0768 15.2181 75.0744 15.4068 75.9917 15.8108C76.699 16.1506 77.2944 16.6855 77.708 17.3523C78.1291 18.0633 78.4079 18.8494 78.5287 19.6668C78.6776 20.617 78.7512 21.5774 78.7487 22.5391L78.7647 30.9861L74.0487 30.9959L74.0327 23.4916C74.0327 23.0626 74.0168 22.6059 73.9886 22.1198C73.9663 21.6718 73.8711 21.2304 73.7066 20.813C73.5524 20.4332 73.3003 20.1009 72.976 19.8501C72.5677 19.5693 72.0767 19.4341 71.5822 19.4664C71.0621 19.4421 70.5446 19.5534 70.0805 19.7894C69.7175 19.9968 69.4202 20.302 69.2223 20.6702C69.0178 21.0594 68.8812 21.4806 68.8184 21.9157C68.7452 22.3985 68.7102 22.8863 68.7136 23.3745L68.7277 31.0076L64.0117 31.0174L63.9639 7.17376L68.6836 7.16211Z" fill="white"/>
<path d="M96.6425 28.2893C95.8746 29.2629 94.8835 30.0372 93.7531 30.5468C92.6322 31.0699 91.4111 31.3435 90.1741 31.3486C89.0333 31.3611 87.8996 31.1667 86.828 30.7748C85.8316 30.4105 84.9137 29.8594 84.1237 29.1511C83.3452 28.4453 82.7224 27.5848 82.2953 26.6246C81.855 25.5723 81.6272 24.4434 81.625 23.3028C81.6228 22.1621 81.8462 21.0323 82.2824 19.9784C82.7053 19.0167 83.3243 18.1538 84.0998 17.4451C84.8863 16.7331 85.8017 16.1782 86.7968 15.8104C87.8669 15.4144 89 15.2158 90.141 15.2244C91.1241 15.1729 92.1062 15.3414 93.0158 15.7178C93.9254 16.0941 94.7396 16.6687 95.3989 17.3997C96.6726 18.8557 97.3121 20.8128 97.3174 23.2712L97.3205 24.7729L86.3432 24.7937C86.5011 25.6362 86.9415 26.3996 87.5918 26.958C88.2422 27.494 89.0657 27.7745 89.9081 27.7469C90.6016 27.7666 91.2862 27.5868 91.8806 27.2289C92.4298 26.8764 92.908 26.424 93.2903 25.8952L96.6425 28.2893ZM92.5971 21.523C92.6136 21.1499 92.5511 20.7776 92.4138 20.4303C92.2765 20.083 92.0674 19.7686 91.8003 19.5077C91.5248 19.2257 91.1937 19.0043 90.8279 18.8575C90.4621 18.7107 90.0697 18.6417 89.6758 18.6551C89.2367 18.6297 88.7972 18.6952 88.3845 18.8472C87.9719 18.9993 87.595 19.2348 87.2773 19.5389C86.7339 20.0687 86.4002 20.7771 86.3377 21.5335L92.5971 21.523Z" fill="white"/>
<path d="M101.813 19.4032L98.6573 19.4094L98.6511 15.5932L101.805 15.587L101.8 13.2726C101.796 12.474 101.866 11.6768 102.009 10.8913C102.131 10.1756 102.421 9.49901 102.855 8.91757C103.328 8.32149 103.95 7.86161 104.658 7.58502C105.646 7.21861 106.696 7.04851 107.749 7.08425C108.235 7.08425 108.708 7.09834 109.164 7.12409C109.627 7.15348 110.087 7.22508 110.537 7.33801L110.289 11.3681C109.812 11.1716 109.302 11.071 108.787 11.0721C108.173 11.0235 107.563 11.1997 107.071 11.5679C106.698 11.8973 106.514 12.5622 106.519 13.5625L106.524 15.5778L110.302 15.5699L110.308 19.3861L106.531 19.3941L106.553 30.9291L101.837 30.9389L101.813 19.4032Z" fill="white"/>
<path d="M121.515 28.9689H121.428C120.924 29.7692 120.184 30.3927 119.309 30.7526C118.432 31.1131 117.493 31.2978 116.545 31.2962C115.847 31.2993 115.153 31.1989 114.485 30.9984C113.854 30.8143 113.264 30.5098 112.748 30.1016C112.241 29.6974 111.83 29.1863 111.544 28.6048C111.234 27.9639 111.078 27.2591 111.089 26.5471C111.054 25.9902 111.13 25.4319 111.313 24.9047C111.496 24.3776 111.782 23.8922 112.155 23.4769C112.895 22.7313 113.807 22.1781 114.81 21.8655C115.907 21.5119 117.046 21.3077 118.197 21.2586C119.398 21.1973 120.498 21.1685 121.499 21.1655C121.511 20.7861 121.436 20.409 121.279 20.0633C121.122 19.7177 120.888 19.413 120.594 19.1728C119.992 18.6741 119.23 18.4092 118.449 18.4268C117.714 18.4205 116.988 18.5837 116.326 18.9037C115.668 19.2325 115.08 19.6849 114.593 20.2362L112.058 17.668C112.931 16.8279 113.977 16.1894 115.123 15.7973C116.314 15.3791 117.568 15.1664 118.83 15.1684C119.988 15.1318 121.143 15.3035 122.241 15.6753C123.082 15.9756 123.824 16.5012 124.386 17.1948C124.945 17.9263 125.328 18.7762 125.506 19.6791C125.737 20.8001 125.847 21.9426 125.834 23.0871L125.85 30.8923L121.519 30.9003L121.515 28.9689ZM120.304 24.1689C119.932 24.1689 119.482 24.1861 118.956 24.2149C118.432 24.2448 117.914 24.3389 117.413 24.495C116.948 24.6347 116.518 24.87 116.15 25.1858C115.979 25.3382 115.844 25.527 115.755 25.7384C115.667 25.9499 115.627 26.1784 115.638 26.4074C115.627 26.6684 115.691 26.9272 115.825 27.1519C115.958 27.3765 116.154 27.5573 116.389 27.6719C116.855 27.9333 117.379 28.0729 117.913 28.0777C118.796 28.0848 119.661 27.8288 120.398 27.3421C120.757 27.1148 121.049 26.7965 121.244 26.4196C121.439 26.0426 121.53 25.6207 121.509 25.1968V24.1671L120.304 24.1689Z" fill="white"/>
<path d="M138.496 28.9357H138.409C137.905 29.7356 137.164 30.3589 136.29 30.7194C135.413 31.0793 134.474 31.2634 133.526 31.2612C132.829 31.2649 132.135 31.1651 131.467 30.9652C130.835 30.7803 130.245 30.4755 129.729 30.0672C129.222 29.6633 128.811 29.1521 128.525 28.5704C128.215 27.9295 128.059 27.2247 128.07 26.5127C128.035 25.9561 128.111 25.398 128.294 24.8711C128.477 24.3442 128.763 23.8591 129.136 23.4443C129.876 22.6978 130.788 22.1441 131.791 21.8316C132.888 21.479 134.026 21.2749 135.177 21.2248C136.379 21.1648 137.48 21.1341 138.48 21.1329C138.493 20.7535 138.418 20.3763 138.261 20.0307C138.104 19.685 137.869 19.3803 137.575 19.1402C136.973 18.6412 136.211 18.3763 135.43 18.3942C134.696 18.3882 133.97 18.5507 133.308 18.8693C132.651 19.1991 132.062 19.6519 131.575 20.2031L129.039 17.6348C129.911 16.7947 130.957 16.1562 132.103 15.7641C133.295 15.3461 134.548 15.1328 135.811 15.1334C136.969 15.0982 138.124 15.2705 139.222 15.6421C140.063 15.9422 140.805 16.4679 141.367 17.1616C141.924 17.893 142.307 18.7421 142.487 19.644C142.716 20.7658 142.826 21.9085 142.815 23.0533L142.831 30.8585L138.499 30.8665L138.496 28.9357ZM137.284 24.1357C136.916 24.1357 136.463 24.1517 135.936 24.1798C135.412 24.2095 134.893 24.3042 134.393 24.4618C133.928 24.6006 133.498 24.836 133.13 25.1526C132.959 25.305 132.824 25.4939 132.735 25.7053C132.646 25.9166 132.606 26.1452 132.617 26.3742C132.606 26.6351 132.671 26.8935 132.805 27.1178C132.939 27.3421 133.135 27.5225 133.37 27.6369C133.835 27.899 134.359 28.0386 134.894 28.0426C135.777 28.0505 136.642 27.7944 137.379 27.3071C137.737 27.0797 138.029 26.7613 138.224 26.3844C138.419 26.0076 138.511 25.5857 138.49 25.1618V24.132L137.284 24.1357Z" fill="white"/>
</g>
<defs>
<clipPath id="clip0_4690_21238">
<rect width="142.83" height="37.7618" fill="white" transform="translate(0 0.226562)"/>
</clipPath>
</defs>
</svg>
