<svg width="15" height="15" viewBox="0 0 15 15" fill="none" xmlns="http://www.w3.org/2000/svg">
<path d="M12.2431 4.17875C11.619 4.04524 11.0538 3.71584 10.6299 3.2386C10.2061 2.76135 9.94575 2.16119 9.8869 1.52562V1.25H7.73377V9.795C7.73244 10.1733 7.61261 10.5417 7.39112 10.8483C7.16963 11.155 6.85762 11.3846 6.49893 11.5048C6.14023 11.625 5.75289 11.6298 5.39133 11.5185C5.02977 11.4073 4.71216 11.1855 4.48315 10.8844C4.25057 10.5782 4.12156 10.206 4.11481 9.82157C4.10807 9.43717 4.22394 9.06061 4.44563 8.7465C4.66731 8.43239 4.98329 8.19706 5.34774 8.07464C5.71219 7.95221 6.10616 7.94905 6.47252 8.06562V5.87812C5.65555 5.76519 4.82372 5.91043 4.09336 6.29354C3.36301 6.67665 2.77067 7.27847 2.39919 8.0148C2.02772 8.75114 1.89569 9.58518 2.02157 10.4003C2.14746 11.2153 2.52496 11.9707 3.10127 12.5606C3.65087 13.123 4.35557 13.5088 5.12543 13.6688C5.89529 13.8289 6.69537 13.7559 7.42355 13.4591C8.15173 13.1624 8.77498 12.6554 9.21373 12.0029C9.65249 11.3504 9.88685 10.5819 9.8869 9.79562V5.42937C10.757 6.05146 11.8004 6.38503 12.87 6.38312V4.24375C12.6594 4.24401 12.4493 4.22222 12.2431 4.17875Z" fill="white"/>
</svg>
